<svg xmlns="http://www.w3.org/2000/svg" width="32" height="32" viewBox="0 0 8.467 8.467" id="mute">
	<path d="m 4.7500507,0.79388278 a 0.26429597,0.26460561 0 0 0 -0.1538128,0.056843 L 2.2859438,2.6495548 c -0.0071,-4.233e-4 -0.01394,-0.0021 -0.02116,-0.0021 h -1.090628 c -0.20591506,0 -0.38040306,0.172704 -0.38040306,0.378783 v 2.4163509 c 0,0.206079 0.17449,0.3787831 0.38040306,0.3787831 h 1.090628 c 0.0072,0 0.01403,-0.00159 0.02116,-0.00209 L 4.5962379,7.6181085 A 0.26429597,0.26460561 0 0 0 5.0215468,7.4094055 V 1.0600129 A 0.26429597,0.26460561 0 0 0 4.7500507,0.79388278 Z M 4.4924918,1.6005399 v 5.267812 L 2.6431208,5.4271188 v -2.386896 z m 1.330638,1.3084269 A 0.26429597,0.26460561 0 0 0 5.7957698,2.909496 0.26429597,0.26460561 0 0 0 5.6027287,3.335303 L 6.2763068,4.2344462 5.6027287,5.134119 a 0.26472478,0.26503493 0 1 0 0.423245,0.318322 L 6.6071598,4.6757561 7.1888627,5.452441 A 0.26429597,0.26460561 0 1 0 7.6100418,5.134119 L 6.9369807,4.2344459 7.6100418,3.3352908 A 0.26429597,0.26460561 0 0 0 7.3819027,2.9094838 0.26429597,0.26460561 0 0 0 7.1888616,3.0169688 L 6.6071598,3.7936527 6.0259726,3.0169688 A 0.26429597,0.26460561 0 0 0 5.8231298,2.9089668 Z m -4.500324,0.268196 h 0.791776 v 2.1150831 h -0.791776 z" color="#000" font-family="sans-serif" font-weight="400" overflow="visible" style="line-height:normal;font-variant-ligatures:normal;font-variant-position:normal;font-variant-caps:normal;font-variant-numeric:normal;font-variant-alternates:normal;font-feature-settings:normal;text-indent:0;text-align:start;text-decoration-line:none;text-decoration-style:solid;text-decoration-color:#000;text-transform:none;text-orientation:mixed;shape-padding:0;isolation:auto;mix-blend-mode:normal">
	</path>
</svg>
