<svg xmlns="http://www.w3.org/2000/svg" width="32" height="32" viewBox="0 0 8.467 8.467" id="sound">
	<path d="m 4.7535541,0.79391447 a 0.26453033,0.26454179 0 0 0 -0.1539488,0.05683 L 2.2872623,2.6491385 c -0.0071,-4.233e-4 -0.01395,-0.00206 -0.02118,-0.00206 h -1.091594 c -0.20607001,10e-8 -0.38074101,0.1726131 -0.38074101,0.3786909 v 2.4157683 c 0,0.2060784 0.174671,0.378691 0.38074101,0.378691 h 1.091595 c 0.0072,0 0.01403,-0.00164 0.02118,-0.00206 l 2.312342,1.7983838 A 0.26453033,0.26454179 0 0 0 5.0273571,7.4078266 V 1.0599797 A 0.26453033,0.26454179 0 0 0 4.7535541,0.79391447 Z M 4.4978322,1.6003762 V 6.8669167 L 2.6468223,5.4275815 V 3.0397113 Z m 1.308571,0.5352301 a 0.26453027,0.26454173 0 0 0 -0.02376,0.5269641 c 0.7826449,0.113093 1.3612649,0.7792264 1.3612649,1.5700427 0,0.7908388 -0.5785941,1.4590416 -1.3612649,1.5721092 a 0.26453027,0.26454173 0 1 0 0.07646,0.5233479 c 1.039045,-0.1501042 1.8138162,-1.045578 1.8138162,-2.0954571 0,-1.0498498 -0.7748062,-1.9427357 -1.8138151,-2.0928736 a 0.26453027,0.26454173 0 0 0 -0.05269,-0.00413 z M 1.3232702,3.1766186 H 2.1178153 V 5.2911909 H 1.3232702 Z m 4.4810671,0.04288 A 0.26453027,0.26454173 0 0 0 5.7320173,3.73458 c 0.2121342,0.075113 0.35336,0.2729806 0.35336,0.4980328 1.1e-6,0.2251226 -0.141133,0.4250386 -0.35336,0.5000993 a 0.26453027,0.26454173 0 1 0 0.175647,0.4980324 C 6.3294522,5.0815671 6.6143851,4.680023 6.6143851,4.2326131 c 0,-0.4472726 -0.2830499,-0.846266 -0.704655,-0.9955487 A 0.26453027,0.26454173 0 0 0 5.8043423,3.2194985 Z" color="#000" font-family="sans-serif" font-weight="400" overflow="visible" style="line-height:normal;font-variant-ligatures:normal;font-variant-position:normal;font-variant-caps:normal;font-variant-numeric:normal;font-variant-alternates:normal;font-feature-settings:normal;text-indent:0;text-align:start;text-decoration-line:none;text-decoration-style:solid;text-decoration-color:#000;text-transform:none;text-orientation:mixed;shape-padding:0;isolation:auto;mix-blend-mode:normal">
	</path>
</svg>
